<?xml version="1.0" encoding="UTF-8"?>
<svg width="32px" height="30px" viewBox="0 0 32 30" version="1.1" xmlns="http://www.w3.org/2000/svg" xmlns:xlink="http://www.w3.org/1999/xlink">
    <!-- Generator: Sketch 42 (36781) - http://www.bohemiancoding.com/sketch -->
    <title>download63</title>
    <desc>Created with Sketch.</desc>
    <defs></defs>
    <g id="Welcome" stroke="none" stroke-width="1" fill="none" fill-rule="evenodd">
        <g id="Desktop" transform="translate(-423.000000, -1001.000000)" fill="#000000">
            <g id="Group-2" transform="translate(308.000000, 985.000000)">
                <g id="Group-3" transform="translate(115.000000, 16.000000)">
                    <g id="download63">
                        <g id="Group" fill="none">
                            <path d="M31.4127059,20.5092857 C31.0550588,20.1471429 30.6204706,19.9661905 30.1094118,19.9661905 L21.2141176,19.9661905 L18.6070588,22.6042857 C17.8658824,23.3283333 16.9967059,23.6904762 16,23.6904762 C15.0032941,23.6904762 14.1341176,23.3285714 13.3929412,22.6042857 L10.8049412,19.9661905 L1.89082353,19.9661905 C1.37976471,19.9661905 0.945176471,20.147381 0.587294118,20.5092857 C0.229411765,20.8711905 0.0505882353,21.3109524 0.0505882353,21.8283333 L0.0505882353,28.0357143 C0.0505882353,28.5530952 0.229411765,28.9928571 0.587294118,29.3547619 C0.945176471,29.7166667 1.37976471,29.8978571 1.89082353,29.8978571 L30.1094118,29.8978571 C30.6204706,29.8978571 31.0552941,29.7166667 31.4127059,29.3547619 C31.7705882,28.992619 31.9494118,28.5530952 31.9494118,28.0357143 L31.9494118,21.8283333 C31.9494118,21.3109524 31.7705882,20.8711905 31.4127059,20.5092857 L31.4127059,20.5092857 Z M24.2242353,27.0464286 C23.9811765,27.2921429 23.6934118,27.415 23.3611765,27.415 C23.0289412,27.415 22.7416471,27.2921429 22.4985882,27.0464286 C22.256,26.8007143 22.1345882,26.5097619 22.1345882,26.1735714 C22.1345882,25.837619 22.256,25.5461905 22.4985882,25.3007143 C22.7416471,25.055 23.0289412,24.9319048 23.3611765,24.9319048 C23.6934118,24.9319048 23.9811765,25.055 24.2242353,25.3007143 C24.4668235,25.5461905 24.5882353,25.837619 24.5882353,26.1735714 C24.5882353,26.5097619 24.4668235,26.8004762 24.2242353,27.0464286 L24.2242353,27.0464286 Z M29.1315294,27.0464286 C28.8889412,27.2921429 28.6011765,27.415 28.2689412,27.415 C27.9367059,27.415 27.6491765,27.2921429 27.4063529,27.0464286 C27.1637647,26.8007143 27.0423529,26.5097619 27.0423529,26.1735714 C27.0423529,25.837619 27.1637647,25.5461905 27.4063529,25.3007143 C27.6491765,25.055 27.9367059,24.9319048 28.2689412,24.9319048 C28.6011765,24.9319048 28.8889412,25.055 29.1315294,25.3007143 C29.3743529,25.5461905 29.496,25.837619 29.496,26.1735714 C29.4957647,26.5097619 29.3745882,26.8004762 29.1315294,27.0464286 L29.1315294,27.0464286 Z" id="Shape" fill="#FFFFFF"></path>
                            <path d="M16,21.2071429 C16.3451765,21.2071429 16.6324706,21.0842857 16.8625882,20.8388095 L25.4508235,12.1483333 C25.8470588,11.7733333 25.9364706,11.3207143 25.7192941,10.7904762 C25.5023529,10.2861905 25.1251765,10.0340476 24.5882353,10.0338095 L19.6807059,10.0338095 L19.6807059,1.34333333 C19.6807059,1.00714286 19.5590588,0.716190476 19.3167059,0.47047619 C19.0736471,0.224761905 18.7861176,0.101904762 18.4541176,0.101904762 L13.5461176,0.101904762 C13.2138824,0.101904762 12.9263529,0.224761905 12.6835294,0.47047619 C12.4407059,0.716190476 12.3192941,1.00714286 12.3192941,1.34333333 L12.3192941,10.0338095 L7.41176471,10.0338095 C6.87482353,10.0338095 6.49788235,10.2861905 6.28070588,10.7904762 C6.06352941,11.3204762 6.15294118,11.7733333 6.54917647,12.1483333 L15.1374118,20.8388095 C15.3675294,21.0842857 15.6550588,21.2071429 16,21.2071429 Z" id="Shape" fill="#FF0080"></path>
                        </g>
                    </g>
                </g>
            </g>
        </g>
    </g>
</svg>