<?xml version="1.0" encoding="UTF-8"?>
<svg width="32px" height="32px" viewBox="0 0 32 32" version="1.1" xmlns="http://www.w3.org/2000/svg" xmlns:xlink="http://www.w3.org/1999/xlink">
    <!-- Generator: Sketch 42 (36781) - http://www.bohemiancoding.com/sketch -->
    <title>dribbble4</title>
    <desc>Created with Sketch.</desc>
    <defs></defs>
    <g id="Welcome" stroke="none" stroke-width="1" fill="none" fill-rule="evenodd">
        <g id="Desktop" transform="translate(-556.000000, -1092.000000)" fill="#000000">
            <g id="Group" transform="translate(316.000000, 1085.000000)">
                <g id="dribbble4" transform="translate(240.000000, 7.000000)">
                    <path d="M29.76,8.02336508 C28.3390476,5.5888254 26.4114286,3.66120635 23.9768889,2.24025397 C21.5418413,0.819301587 18.8835556,0.108952381 16.000254,0.108952381 C13.1172063,0.108952381 10.4581587,0.819301587 8.02361905,2.24025397 C5.5888254,3.66095238 3.66120635,5.58857143 2.24025397,8.02336508 C0.819047619,10.4581587 0.108698413,13.1172063 0.108698413,16 C0.108698413,18.8830476 0.819301587,21.5415873 2.24,23.9766349 C3.66095238,26.4109206 5.58857143,28.3387937 8.02336508,29.759746 C10.4581587,31.1806984 13.1169524,31.8910476 16,31.8910476 C18.8830476,31.8910476 21.5420952,31.1806984 23.9766349,29.759746 C26.4111746,28.3390476 28.3387937,26.4111746 29.759746,23.9766349 C31.1804444,21.5418413 31.8907937,18.8827937 31.8907937,16 C31.8907937,13.1169524 31.1804444,10.4579048 29.76,8.02336508 L29.76,8.02336508 Z M16,2.4264127 C19.4206984,2.4264127 22.4073651,3.5575873 24.9592381,5.81968254 L24.7006984,6.1815873 C24.5970794,6.32660317 24.3385397,6.60571429 23.9245714,7.01968254 C23.5108571,7.43339683 23.0590476,7.82679365 22.5693968,8.19911111 C22.0794921,8.57168254 21.4143492,8.99580952 20.5726984,9.47174603 C19.7310476,9.94768254 18.8345397,10.3652063 17.8826667,10.7238095 C16.296381,7.79911111 14.599873,5.16444444 12.7926349,2.81955556 C13.8826667,2.55746032 14.951619,2.4264127 16,2.4264127 L16,2.4264127 Z M5.3648254,7.57815873 C6.68901587,5.90933333 8.30273016,4.62628571 10.2064762,3.72977778 C11.9169524,6.00584127 13.599746,8.61307937 15.2551111,11.5512381 C11.0615873,12.6547302 6.88203175,13.2066032 2.71619048,13.2063492 C3.15784127,11.1235556 4.04063492,9.2472381 5.3648254,7.57815873 L5.3648254,7.57815873 Z M3.33663492,20.8939683 C2.72965079,19.3419683 2.42615873,17.7107302 2.42615873,16 C2.42615873,15.8067302 2.43326984,15.6619683 2.44698413,15.5654603 C7.4407619,15.5654603 12.0825397,14.9241905 16.3725714,13.6411429 C16.8139683,14.496254 17.1796825,15.2619683 17.4692063,15.9380317 C17.4135873,15.9654603 17.3246984,15.9964444 17.200254,16.0309841 C17.0758095,16.0655238 16.9861587,16.0893968 16.9307937,16.1033651 L16.1653333,16.3725714 C15.6408889,16.5655873 14.9544127,16.8965079 14.1064127,17.3655873 C13.2581587,17.8349206 12.3580952,18.3933968 11.4062222,19.0417778 C10.4543492,19.6904127 9.47149206,20.5490794 8.45765079,21.6182857 C7.44380952,22.6872381 6.592,23.8354286 5.90222222,25.0631111 C4.79873016,23.8354286 3.94361905,22.4454603 3.33663492,20.8939683 L3.33663492,20.8939683 Z M16,29.5738413 C12.7720635,29.5738413 9.88901587,28.5391746 7.35085714,26.4700952 L7.66120635,26.6976508 C8.144,25.6353016 8.85434921,24.6146032 9.79250794,23.6353016 C10.7306667,22.656 11.6340317,21.8659048 12.5031111,21.2657778 C13.3721905,20.6659048 14.3169524,20.1005714 15.3379048,19.5690159 C16.3586032,19.0379683 17.0549841,18.6999365 17.4275556,18.5554286 C17.800127,18.4104127 18.0967619,18.296381 18.3174603,18.2138413 L18.3588571,18.1930159 L18.400254,18.1930159 C19.751873,21.7381587 20.7177143,25.1730794 21.2970159,28.4975238 C19.5865397,29.2149841 17.8209524,29.5735873 16,29.5738413 L16,29.5738413 Z M27.4222222,23.3353651 C26.4012698,24.9147937 25.1250794,26.2219683 23.5944127,27.256381 C23.0283175,24.0838095 22.1460317,20.8487619 20.9455238,17.552 C23.6906667,17.1240635 26.5114921,17.3241905 29.408254,18.151619 C29.1047619,20.0276825 28.4426667,21.7556825 27.4222222,23.3353651 L27.4222222,23.3353651 Z M29.3666032,15.8138413 C29.2286984,15.7864127 29.056254,15.7551746 28.8492698,15.7208889 C28.6425397,15.6866032 28.3906032,15.6449524 28.0939683,15.5966984 C27.7975873,15.5484444 27.4661587,15.503746 27.1006984,15.4623492 C26.7352381,15.4209524 26.3456508,15.3831111 25.9314286,15.3485714 C25.5177143,15.3140317 25.0763175,15.2866032 24.6074921,15.2657778 C24.1379048,15.2452063 23.6622222,15.2347937 23.1794286,15.2347937 C22.6968889,15.2347937 22.1897143,15.2487619 21.6589206,15.2761905 C21.127873,15.3033651 20.6140952,15.352127 20.1175873,15.4209524 C20.0759365,15.351873 20.024381,15.2380952 19.9624127,15.0793651 C19.9004444,14.9208889 19.8552381,14.8 19.8283175,14.7172063 C19.5659683,14.1379048 19.2624762,13.4826667 18.9173333,12.751746 C19.8692063,12.3652063 20.776381,11.9205079 21.6388571,11.4168889 C22.5008254,10.9132698 23.1900952,10.4652698 23.7076825,10.072127 C24.2250159,9.67873016 24.7146667,9.26146032 25.1768889,8.82006349 C25.6388571,8.37866667 25.9387937,8.07187302 26.0769524,7.89942857 C26.2151111,7.72673016 26.3461587,7.55784127 26.4700952,7.39250794 L26.4909206,7.37168254 C28.5048889,9.82704762 29.5329524,12.6547302 29.5738413,15.8552381 L29.3666032,15.8138413 L29.3666032,15.8138413 Z" id="Shape" fill="#FF0080"></path>
                </g>
            </g>
        </g>
    </g>
</svg>