<?xml version="1.0" encoding="UTF-8"?>
<svg width="32px" height="31px" viewBox="0 0 32 31" version="1.1" xmlns="http://www.w3.org/2000/svg" xmlns:xlink="http://www.w3.org/1999/xlink">
    <!-- Generator: Sketch 42 (36781) - http://www.bohemiancoding.com/sketch -->
    <title>github10</title>
    <desc>Created with Sketch.</desc>
    <defs></defs>
    <g id="Welcome" stroke="none" stroke-width="1" fill="none" fill-rule="evenodd">
        <g id="Desktop" transform="translate(-316.000000, -1093.000000)" fill="#000000">
            <g id="Group" transform="translate(316.000000, 1085.000000)">
                <g id="github10" transform="translate(0.000000, 8.000000)">
                    <path d="M29.7594921,7.90804918 C28.3385397,5.4720082 26.4109206,3.54340164 23.976381,2.12172131 C21.5413333,0.700040984 18.8830476,-0.0106721311 15.999746,-0.0106721311 C13.1166984,-0.0106721311 10.4576508,0.700295082 8.02311111,2.12172131 C5.58831746,3.54340164 3.66069841,5.4720082 2.23974603,7.90804918 C0.818793651,10.3440902 0.108444444,13.0042459 0.108444444,15.8885164 C0.108444444,19.3528934 1.11873016,22.4683934 3.13980952,25.2355246 C5.16063492,28.0026557 7.7711746,29.917541 10.9714286,30.9801803 C11.344,31.0492951 11.6198095,31.0007623 11.7991111,30.8355984 C11.9784127,30.6699262 12.0680635,30.4628361 12.0680635,30.214582 C12.0680635,30.1731639 12.0645079,29.8006557 12.0576508,29.0968033 C12.0505397,28.3926967 12.0472381,27.778541 12.0472381,27.2545902 L11.5713016,27.336918 C11.2678095,27.3925656 10.8850794,27.4161967 10.4228571,27.4093361 C9.96088889,27.4029836 9.48139683,27.3544508 8.98488889,27.2645 C8.48812698,27.1750574 8.02615873,26.9682213 7.59847619,26.6439918 C7.17104762,26.3195082 6.86755556,25.8949098 6.68825397,25.3707049 L6.48126984,24.8942705 C6.34336508,24.5771557 6.12622222,24.2249754 5.8295873,23.8387459 C5.53295238,23.4522623 5.23301587,23.1900328 4.92952381,23.0520574 L4.7847619,22.9486393 C4.68825397,22.8795246 4.59860317,22.7964344 4.51580952,22.699877 C4.43301587,22.6033197 4.37104762,22.5067623 4.32965079,22.4099508 C4.28825397,22.3133934 4.32253968,22.2338607 4.43301587,22.1716066 C4.54349206,22.1093525 4.74336508,22.0788607 5.03314286,22.0788607 L5.44685714,22.1408607 C5.72266667,22.196 6.064,22.361418 6.47111111,22.637623 C6.87796825,22.9135738 7.21244444,23.2723607 7.47453968,23.7137295 C7.792,24.2798607 8.17447619,24.7110656 8.62298413,25.0078525 C9.0712381,25.3046393 9.52304762,25.4527787 9.97815873,25.4527787 C10.4332698,25.4527787 10.8264127,25.4182213 11.1575873,25.3493607 C11.4885079,25.2805 11.7988571,25.1768279 12.0886349,25.0388525 C12.2128254,24.1139344 12.5508571,23.4032213 13.1024762,22.906459 C12.3161905,22.823623 11.6093968,22.6991148 10.9815873,22.5336967 C10.3540317,22.3680246 9.70565079,22.0989344 9.03669841,21.725918 C8.36749206,21.3534098 7.81231746,20.8909508 7.37092063,20.3390492 C6.92952381,19.7868934 6.56736508,19.0622049 6.28469841,18.1652377 C6.00203175,17.2680164 5.86057143,16.2330738 5.86057143,15.0599016 C5.86057143,13.3897131 6.4055873,11.9682869 7.49536508,10.7951148 C6.98488889,9.53936066 7.03314286,8.13165574 7.64012698,6.572 C8.04012698,6.4477459 8.63339683,6.541 9.41968254,6.8515082 C10.2059683,7.16201639 10.7817143,7.42805738 11.1474286,7.64861475 C11.5131429,7.86917213 11.8062222,8.05593443 12.0269206,8.20763115 C13.3099683,7.84884426 14.6341587,7.66945082 15.999746,7.66945082 C17.3653333,7.66945082 18.6897778,7.84884426 19.9730794,8.20763115 L20.7593651,7.71086885 C21.2970159,7.37952459 21.9319365,7.07587705 22.6626032,6.79992623 C23.3937778,6.52397541 23.9527619,6.448 24.3390476,6.5722541 C24.959746,8.13190984 25.0148571,9.53961475 24.504381,10.7953689 C25.5941587,11.968541 26.1391746,13.3902213 26.1391746,15.0601557 C26.1391746,16.2333279 25.9974603,17.2715738 25.7150476,18.1756557 C25.432127,19.0799918 25.0669206,19.8041721 24.6186667,20.3494672 C24.1701587,20.8947623 23.6114286,21.3536639 22.9424762,21.7261721 C22.2732698,22.0989344 21.6248889,22.3680246 20.9973333,22.5336967 C20.3695238,22.6993689 19.6627302,22.823877 18.8764444,22.9067131 C19.5936508,23.5277295 19.952254,24.5075328 19.952254,25.846377 L19.952254,30.2140738 C19.952254,30.4623279 20.0386032,30.669418 20.2110476,30.8348361 C20.3834921,31.0002541 20.655746,31.0487869 21.0283175,30.9796721 C24.2288254,29.9170328 26.8393651,28.0021475 28.8601905,25.2347623 C30.8810159,22.4678852 31.8915556,19.3523852 31.8915556,15.8877541 C31.8907937,13.0039918 31.1799365,10.3440902 29.7594921,7.90804918 L29.7594921,7.90804918 Z" id="Shape" fill="#FF0080"></path>
                </g>
            </g>
        </g>
    </g>
</svg>