<?xml version="1.0" encoding="UTF-8"?>
<svg width="32px" height="32px" viewBox="0 0 32 32" version="1.1" xmlns="http://www.w3.org/2000/svg" xmlns:xlink="http://www.w3.org/1999/xlink">
    <!-- Generator: Sketch 42 (36781) - http://www.bohemiancoding.com/sketch -->
    <title>linkedin9</title>
    <desc>Created with Sketch.</desc>
    <defs></defs>
    <g id="Welcome" stroke="none" stroke-width="1" fill="none" fill-rule="evenodd">
        <g id="Desktop" transform="translate(-396.000000, -1092.000000)" fill="#000000">
            <g id="Group" transform="translate(316.000000, 1085.000000)">
                <g id="linkedin9" transform="translate(80.000000, 7.000000)">
                    <path d="M30.1424762,1.85726984 C28.9772698,0.691809524 27.5735873,0.108952381 25.9321905,0.108952381 L6.06806349,0.108952381 C4.42666667,0.108952381 3.02298413,0.691809524 1.85726984,1.85726984 C0.691809524,3.02298413 0.108952381,4.42666667 0.108952381,6.06806349 L0.108952381,25.9319365 C0.108952381,27.5733333 0.691809524,28.9770159 1.85726984,30.1427302 C3.02298413,31.3084444 4.42666667,31.8913016 6.06806349,31.8913016 L25.9319365,31.8913016 C27.5733333,31.8913016 28.9770159,31.3084444 30.1422222,30.1427302 C31.3079365,28.9770159 31.8907937,27.5733333 31.8907937,25.9319365 L31.8907937,6.06806349 C31.8907937,4.42666667 31.3079365,3.02273016 30.1424762,1.85726984 L30.1424762,1.85726984 Z M9.79250794,26.7182222 L5.0128254,26.7182222 L5.0128254,12.3580952 L9.79250794,12.3580952 L9.79250794,26.7182222 L9.79250794,26.7182222 Z M9.35822222,9.69955556 C8.86171429,10.1754921 8.20647619,10.4134603 7.39250794,10.4134603 L7.37168254,10.4134603 C6.58539683,10.4134603 5.94768254,10.1754921 5.45777778,9.69955556 C4.96787302,9.22361905 4.72304762,8.63390476 4.72304762,7.9304127 C4.72304762,7.21320635 4.97498413,6.61993651 5.47834921,6.15085714 C5.98196825,5.68177778 6.63365079,5.44711111 7.43365079,5.44711111 C8.23365079,5.44711111 8.8751746,5.68177778 9.35796825,6.15085714 C9.8407619,6.61993651 10.0891429,7.21320635 10.1028571,7.9304127 C10.1028571,8.63365079 9.85473016,9.22336508 9.35822222,9.69955556 L9.35822222,9.69955556 Z M26.9871746,26.7182222 L22.2074921,26.7182222 L22.2074921,19.0417778 C22.2074921,16.8764444 21.4074921,15.7932698 19.8072381,15.7932698 C19.2005079,15.7932698 18.6900317,15.9621587 18.2763175,16.3001905 C17.8620952,16.6379683 17.551746,17.0486349 17.3450159,17.5314286 C17.2485079,17.7798095 17.200254,18.1658413 17.200254,18.6900317 L17.200254,26.7182222 L12.4205714,26.7182222 C12.4619683,18.0553651 12.4619683,13.2685714 12.4205714,12.3580952 L17.200254,12.3580952 L17.200254,14.3855238 C18.2052063,12.8142222 19.632254,12.0269206 21.4834286,12.0269206 C23.1387937,12.0269206 24.4700952,12.5719365 25.4770794,13.6614603 C26.4840635,14.7512381 26.9874286,16.3583492 26.9874286,18.4822857 L26.9874286,26.7182222 L26.9871746,26.7182222 Z" id="Shape" fill="#FF0080"></path>
                </g>
            </g>
        </g>
    </g>
</svg>