<?xml version="1.0" encoding="UTF-8"?>
<svg width="34px" height="41px" viewBox="0 0 34 41" version="1.1" xmlns="http://www.w3.org/2000/svg" xmlns:xlink="http://www.w3.org/1999/xlink">
    <!-- Generator: Sketch 42 (36781) - http://www.bohemiancoding.com/sketch -->
    <title>stack10</title>
    <desc>Created with Sketch.</desc>
    <defs></defs>
    <g id="Welcome" stroke="none" stroke-width="1" fill="none" fill-rule="evenodd">
        <g id="Desktop" transform="translate(-635.000000, -1085.000000)" fill="#000000">
            <g id="Group" transform="translate(316.000000, 1085.000000)">
                <g id="stack10" transform="translate(320.000000, 0.000000)">
                    <g id="Group" fill="none" transform="translate(-0.280702, 0.000000)">
                        <polygon id="Shape" fill="#FF0080" points="21.8152982 27.6384932 5.71508772 26.1512603 5.39480702 29.5834658 21.5180351 31.0704178"></polygon>
                        <polygon id="Shape" fill="#FF0080" points="21.4265263 32.0544178 5.25754386 32.0774452 5.25754386 35.5315548 21.4265263 35.5093699"></polygon>
                        <polygon id="Shape" fill="#FF0080" points="24.9254737 19.1731164 10.9978947 10.9363288 9.23705263 13.9105137 23.1643509 22.1473014"></polygon>
                        <polygon id="Shape" fill="#FF0080" points="22.8901053 23.108274 7.27017544 18.9212192 6.37810526 22.2615959 21.9983158 26.4489315"></polygon>
                        <polygon id="Shape" fill="#FF0080" points="24.1931228 38.2774315 2.97038596 38.2774315 2.97038596 24.1380479 0.20322807 24.1380479 0.20322807 40.9769726 0.226245614 40.9769726 1.02680702 41 26.9150877 41 26.9150877 40.9769726 26.9381053 40.1760685 26.9381053 24.1380479 24.1931228 24.1380479"></polygon>
                        <polygon id="Shape" fill="#FF0080" points="29.5910175 0 26.1830175 0.594780822 28.9507368 16.5418151 32.3578947 15.9470342"></polygon>
                        <polygon id="Shape" fill="#FF0080" points="16.3722105 5.33084247 25.4972632 18.6926301 28.3334737 16.7479384 19.2308772 3.36340411"></polygon>
                    </g>
                </g>
            </g>
        </g>
    </g>
</svg>