<?xml version="1.0" encoding="UTF-8"?>
<svg width="32px" height="32px" viewBox="0 0 32 32" version="1.1" xmlns="http://www.w3.org/2000/svg" xmlns:xlink="http://www.w3.org/1999/xlink">
    <!-- Generator: Sketch 42 (36781) - http://www.bohemiancoding.com/sketch -->
    <title>twitter15</title>
    <desc>Created with Sketch.</desc>
    <defs></defs>
    <g id="Welcome" stroke="none" stroke-width="1" fill="none" fill-rule="evenodd">
        <g id="Desktop" transform="translate(-476.000000, -1092.000000)" fill="#000000">
            <g id="Group" transform="translate(316.000000, 1085.000000)">
                <g id="twitter15" transform="translate(160.000000, 7.000000)">
                    <path d="M30.1424762,1.85726984 C28.9772698,0.691809524 27.5735873,0.108952381 25.9321905,0.108952381 L6.06806349,0.108952381 C4.42666667,0.108952381 3.02298413,0.691809524 1.85726984,1.85726984 C0.691809524,3.02298413 0.108952381,4.42666667 0.108952381,6.06806349 L0.108952381,25.9319365 C0.108952381,27.5733333 0.691809524,28.9770159 1.85726984,30.1427302 C3.02298413,31.3084444 4.42666667,31.8913016 6.06806349,31.8913016 L25.9319365,31.8913016 C27.5733333,31.8913016 28.9770159,31.3084444 30.1422222,30.1427302 C31.3079365,28.9770159 31.8907937,27.5733333 31.8907937,25.9319365 L31.8907937,6.06806349 C31.8907937,4.42666667 31.3079365,3.02273016 30.1424762,1.85726984 L30.1424762,1.85726984 Z M24.4213333,12.3377778 C24.4353016,12.4619683 24.4421587,12.647873 24.4421587,12.8965079 C24.4421587,14.0553651 24.2730159,15.2175238 23.9352381,16.3829841 C23.5974603,17.5486984 23.080127,18.6659048 22.3834921,19.7351111 C21.6871111,20.8040635 20.855873,21.7490794 19.8905397,22.5696508 C18.9246984,23.3902222 17.7663492,24.0457143 16.4142222,24.5351111 C15.0626032,25.0252698 13.6139683,25.2700952 12.0690794,25.2700952 C9.66907937,25.2700952 7.44812698,24.6214603 5.40647619,23.3252063 C5.73765079,23.3663492 6.08253968,23.3871746 6.44114286,23.3871746 C8.44139683,23.3871746 10.2415238,22.7664762 11.8417778,21.5248254 C10.903873,21.5111111 10.0657778,21.2218413 9.32774603,20.655746 C8.58971429,20.0901587 8.07593651,19.3729524 7.78615873,18.503873 C8.1447619,18.5589841 8.41371429,18.5861587 8.59301587,18.5861587 C8.89650794,18.5861587 9.24825397,18.5313016 9.64825397,18.4210794 C8.64126984,18.2275556 7.79301587,17.728 7.1032381,16.9208889 C6.41346032,16.1140317 6.06857143,15.1931429 6.06857143,14.1587302 L6.06857143,14.1173333 C6.79949206,14.4619683 7.48926984,14.6412698 8.13765079,14.6552381 C6.88228571,13.8135873 6.25473016,12.6067302 6.25473016,11.0341587 C6.25473016,10.2615873 6.45460317,9.53066667 6.85460317,8.84088889 C7.94438095,10.1790476 9.2688254,11.248 10.8274286,12.048 C12.3860317,12.848 14.0553651,13.2965079 15.8346667,13.3930159 C15.7658413,13.1309206 15.7313016,12.799746 15.7313016,12.399746 C15.7313016,11.1994921 16.1554286,10.1754921 17.0036825,9.32698413 C17.8521905,8.47873016 18.8764444,8.05434921 20.0764444,8.05434921 C21.3457778,8.05434921 22.4010159,8.50971429 23.2424127,9.42019048 C24.1942857,9.24088889 25.1189841,8.88888889 26.0152381,8.36495238 C25.6706032,9.42679365 25.0288254,10.2339048 24.0911746,10.7857778 C24.9874286,10.6613333 25.8219683,10.4269206 26.5942857,10.0820317 C26.0149841,10.9650794 25.2904127,11.7168254 24.4213333,12.3377778 L24.4213333,12.3377778 Z" id="Shape" fill="#FF0080"></path>
                </g>
            </g>
        </g>
    </g>
</svg>